<svg width="80" height="20" viewBox="0 0 89 23" fill="none" xmlns="http://www.w3.org/2000/svg">
<path d="M37.6778 21.8889V6.88889H37.571L31.8059 21.8889H29.5639L23.7987 6.88889H23.692V21.8889H21.0229V1.55556H24.4393L30.6315 17.7778H30.7382L36.9304 1.55556H40.4536V21.8889H37.6778ZM55.5069 21.8889H52.7311V19.3333H52.6244C51.877 21.1111 50.3824 22.1111 48.2471 22.1111C45.1511 22.1111 43.3361 20 43.3361 16.5556V7H46.2187V16C46.2187 18.2222 47.2863 19.4444 49.208 19.4444C51.3432 19.4444 52.5176 17.8889 52.5176 15.5556V7H55.4002L55.5069 21.8889ZM63.4073 6.77778C66.7169 6.77778 68.7454 8.66667 68.8521 11.4444H66.1831C65.9696 10 65.0087 9.11111 63.4073 9.11111C61.8059 9.11111 60.7383 9.88889 60.7383 11.1111C60.7383 12 61.3788 12.6667 62.8735 13L65.1155 13.5556C67.998 14.2222 69.0657 15.4444 69.0657 17.5556C69.0657 20.2222 66.7169 22.1111 63.4073 22.1111C59.8842 22.1111 57.7489 20.3333 57.5354 17.4444H60.418C60.6315 19 61.6991 19.7778 63.4073 19.7778C65.1155 19.7778 66.1831 19 66.1831 17.7778C66.1831 16.7778 65.6493 16.2222 64.1546 15.8889L61.9126 15.3333C59.2436 14.6667 57.9625 13.3333 57.9625 11.1111C57.9625 8.55556 60.0977 6.77778 63.4073 6.77778ZM71.2009 3.11111C71.2009 2.11111 71.9482 1.33333 72.9091 1.33333C73.8699 1.33333 74.6173 2.11111 74.6173 3.11111C74.6173 4.11111 73.8699 4.88889 72.9091 4.88889C71.9482 4.88889 71.2009 4.11111 71.2009 3.11111ZM71.4144 7H74.297V21.8889H71.4144V7ZM86.4678 12.1111C86.1475 10.5556 85.0799 9.22222 83.1582 9.22222C80.9162 9.22222 79.4215 11.2222 79.4215 14.3333C79.4215 17.5556 80.9162 19.4444 83.1582 19.4444C84.9731 19.4444 86.0407 18.4444 86.4678 16.6667H89.2436C88.9233 19.7778 86.5745 22 83.1582 22C79.1012 22 76.539 19.1111 76.539 14.3333C76.539 9.66667 79.1012 6.66667 83.1582 6.66667C86.7881 6.66667 88.9233 9.11111 89.2436 12L86.4678 12.1111ZM12.1617 3.55556C11.4144 4.44444 10.24 5.22222 9.06565 5.11111C8.85213 3.77778 9.4927 2.44444 10.1333 1.66667C10.8806 0.666667 12.1617 0 13.2294 0C13.3361 1.22222 12.9091 2.55556 12.1617 3.55556ZM13.2294 5.33333C13.8699 5.33333 15.7916 5.55555 17.0728 7.55555C16.966 7.66667 14.8308 9 14.8308 11.7778C14.8308 15.1111 17.6066 16.2222 17.6066 16.2222C17.6066 16.3333 17.1795 17.7778 16.2187 19.3333C15.3646 20.6667 14.4037 22 13.0158 22C11.6279 22 11.2009 21.1111 9.59946 21.1111C7.99804 21.1111 7.46423 22 6.18309 22C4.79519 22 3.72758 20.5556 2.87348 19.2222C1.05854 16.4444 -0.329364 11.4444 1.59234 8.11111C2.44644 6.44444 4.15462 5.33333 5.86281 5.33333C7.25071 5.33333 8.53185 6.33333 9.27918 6.33333C10.0265 6.33333 11.5212 5.22222 13.2294 5.33333Z" fill="white"/>
</svg>
