<svg width="362" height="187" viewBox="0 0 362 187" fill="none" xmlns="http://www.w3.org/2000/svg">
<g filter="url(#filter0_d)">
<circle cx="141.343" cy="80.3427" r="57.3427" fill="#FFA53A"/>
<circle cx="223.657" cy="80.3427" r="57.3427" fill="#AD47DD"/>
<path d="M166.315 80.5011C166.315 96.0233 172.482 110.105 182.5 120.429C192.518 110.105 198.685 96.0233 198.685 80.5011C198.685 64.9789 192.518 50.8972 182.5 40.5728C172.482 50.8972 166.315 64.9789 166.315 80.5011Z" fill="#80461B"/>
</g>
<path d="M121.672 83.732H116.772L115.806 86H113.93L118.34 76.2H120.132L124.556 86H122.652L121.672 83.732ZM121.07 82.304L119.222 78.02L117.388 82.304H121.07ZM125.634 75.612H127.384V86H125.634V75.612ZM136.709 82.304C136.709 82.4253 136.7 82.598 136.681 82.822H130.815C130.918 83.3727 131.184 83.8113 131.613 84.138C132.052 84.4553 132.593 84.614 133.237 84.614C134.059 84.614 134.735 84.3433 135.267 83.802L136.205 84.88C135.869 85.2813 135.445 85.5847 134.931 85.79C134.418 85.9953 133.839 86.098 133.195 86.098C132.374 86.098 131.651 85.9347 131.025 85.608C130.4 85.2813 129.915 84.8287 129.569 84.25C129.233 83.662 129.065 82.9993 129.065 82.262C129.065 81.534 129.229 80.8807 129.555 80.302C129.891 79.714 130.353 79.2567 130.941 78.93C131.529 78.6033 132.192 78.44 132.929 78.44C133.657 78.44 134.306 78.6033 134.875 78.93C135.454 79.2473 135.902 79.7 136.219 80.288C136.546 80.8667 136.709 81.5387 136.709 82.304ZM132.929 79.84C132.369 79.84 131.893 80.008 131.501 80.344C131.119 80.6707 130.885 81.1093 130.801 81.66H135.043C134.969 81.1187 134.74 80.68 134.357 80.344C133.975 80.008 133.499 79.84 132.929 79.84ZM142.945 86L141.027 83.41L139.095 86H137.163L140.075 82.206L137.289 78.524H139.235L141.069 80.974L142.903 78.524H144.793L141.993 82.178L144.919 86H142.945Z" fill="white"/>
<path d="M220.672 83.732H215.772L214.806 86H212.93L217.34 76.2H219.132L223.556 86H221.652L220.672 83.732ZM220.07 82.304L218.222 78.02L216.388 82.304H220.07ZM228.876 78.44C229.819 78.44 230.575 78.7153 231.144 79.266C231.714 79.8167 231.998 80.6333 231.998 81.716V86H230.248V81.94C230.248 81.2867 230.094 80.7967 229.786 80.47C229.478 80.134 229.04 79.966 228.47 79.966C227.826 79.966 227.318 80.162 226.944 80.554C226.571 80.9367 226.384 81.492 226.384 82.22V86H224.634V78.524H226.3V79.49C226.59 79.1447 226.954 78.8833 227.392 78.706C227.831 78.5287 228.326 78.44 228.876 78.44ZM241.609 75.612V86H239.929V85.034C239.639 85.3887 239.28 85.6547 238.851 85.832C238.431 86.0093 237.964 86.098 237.451 86.098C236.732 86.098 236.083 85.9393 235.505 85.622C234.935 85.3047 234.487 84.8567 234.161 84.278C233.834 83.69 233.671 83.018 233.671 82.262C233.671 81.506 233.834 80.8387 234.161 80.26C234.487 79.6813 234.935 79.2333 235.505 78.916C236.083 78.5987 236.732 78.44 237.451 78.44C237.945 78.44 238.398 78.524 238.809 78.692C239.219 78.86 239.569 79.112 239.859 79.448V75.612H241.609ZM237.661 84.6C238.081 84.6 238.459 84.5067 238.795 84.32C239.131 84.124 239.397 83.8487 239.593 83.494C239.789 83.1393 239.887 82.7287 239.887 82.262C239.887 81.7953 239.789 81.3847 239.593 81.03C239.397 80.6753 239.131 80.4047 238.795 80.218C238.459 80.022 238.081 79.924 237.661 79.924C237.241 79.924 236.863 80.022 236.527 80.218C236.191 80.4047 235.925 80.6753 235.729 81.03C235.533 81.3847 235.435 81.7953 235.435 82.262C235.435 82.7287 235.533 83.1393 235.729 83.494C235.925 83.8487 236.191 84.124 236.527 84.32C236.863 84.5067 237.241 84.6 237.661 84.6ZM245.564 79.616C246.068 78.832 246.955 78.44 248.224 78.44V80.106C248.075 80.078 247.939 80.064 247.818 80.064C247.137 80.064 246.605 80.2647 246.222 80.666C245.839 81.058 245.648 81.6273 245.648 82.374V86H243.898V78.524H245.564V79.616ZM256.668 82.304C256.668 82.4253 256.659 82.598 256.64 82.822H250.774C250.877 83.3727 251.143 83.8113 251.572 84.138C252.011 84.4553 252.552 84.614 253.196 84.614C254.018 84.614 254.694 84.3433 255.226 83.802L256.164 84.88C255.828 85.2813 255.404 85.5847 254.89 85.79C254.377 85.9953 253.798 86.098 253.154 86.098C252.333 86.098 251.61 85.9347 250.984 85.608C250.359 85.2813 249.874 84.8287 249.528 84.25C249.192 83.662 249.024 82.9993 249.024 82.262C249.024 81.534 249.188 80.8807 249.514 80.302C249.85 79.714 250.312 79.2567 250.9 78.93C251.488 78.6033 252.151 78.44 252.888 78.44C253.616 78.44 254.265 78.6033 254.834 78.93C255.413 79.2473 255.861 79.7 256.178 80.288C256.505 80.8667 256.668 81.5387 256.668 82.304ZM252.888 79.84C252.328 79.84 251.852 80.008 251.46 80.344C251.078 80.6707 250.844 81.1093 250.76 81.66H255.002C254.928 81.1187 254.699 80.68 254.316 80.344C253.934 80.008 253.458 79.84 252.888 79.84ZM261 78.44C262.101 78.44 262.941 78.706 263.52 79.238C264.108 79.7607 264.402 80.554 264.402 81.618V86H262.75V85.09C262.535 85.4167 262.227 85.6687 261.826 85.846C261.434 86.014 260.958 86.098 260.398 86.098C259.838 86.098 259.348 86.0047 258.928 85.818C258.508 85.622 258.181 85.356 257.948 85.02C257.724 84.6747 257.612 84.2873 257.612 83.858C257.612 83.186 257.859 82.6493 258.354 82.248C258.858 81.8373 259.647 81.632 260.72 81.632H262.652V81.52C262.652 80.9973 262.493 80.596 262.176 80.316C261.868 80.036 261.406 79.896 260.79 79.896C260.37 79.896 259.955 79.9613 259.544 80.092C259.143 80.2227 258.802 80.4047 258.522 80.638L257.836 79.364C258.228 79.0653 258.699 78.8367 259.25 78.678C259.801 78.5193 260.384 78.44 261 78.44ZM260.762 84.824C261.201 84.824 261.588 84.726 261.924 84.53C262.269 84.3247 262.512 84.0353 262.652 83.662V82.794H260.846C259.838 82.794 259.334 83.1253 259.334 83.788C259.334 84.1053 259.46 84.3573 259.712 84.544C259.964 84.7307 260.314 84.824 260.762 84.824Z" fill="white"/>
<g filter="url(#filter1_d)">
<path d="M31.3693 21.5406C31.3693 26.6963 30.7441 32.4925 33.1125 37.2293C34.8672 40.7389 38.0252 46.6081 41.441 48.5601C45.6168 50.9462 49.7423 52.9528 54.0308 55.097C58.7046 57.4339 63.3201 57.4671 67.9763 59.0192" stroke="white" stroke-width="2" stroke-linecap="round" stroke-dasharray="6 6"/>
<path d="M58.3424 68.6352C63.3258 66.2461 68.5666 63.8031 74.0982 63.046C74.5229 62.9878 77.1994 62.7911 76.7086 61.9731C73.8555 57.2189 71.5501 52.1903 69.1499 47.1837" stroke="white" stroke-width="2" stroke-linecap="round" stroke-dasharray="6 6"/>
</g>
<g filter="url(#filter2_d)">
<path d="M333.927 41C333.927 46.0899 334.54 51.8121 332.216 56.4884C330.494 59.9531 327.395 65.7474 324.042 67.6744C319.944 70.0301 315.895 72.0111 311.686 74.1279C307.099 76.435 302.57 76.4678 298 78" stroke="white" stroke-width="2" stroke-linecap="round" stroke-dasharray="6 6"/>
<path d="M307.304 88.0946C302.386 85.7055 297.213 83.2625 291.753 82.5054C291.334 82.4472 288.693 82.2505 289.177 81.4325C291.993 76.6783 294.268 71.6498 296.637 66.6431" stroke="white" stroke-width="2" stroke-linecap="round" stroke-dasharray="6 6"/>
</g>
<path d="M23.832 4.92H21.048V3.6H28.176V4.92H25.392V12H23.832V4.92ZM30.4784 6.528C30.9104 5.856 31.6704 5.52 32.7584 5.52V6.948C32.6304 6.924 32.5144 6.912 32.4104 6.912C31.8264 6.912 31.3704 7.084 31.0424 7.428C30.7144 7.764 30.5504 8.252 30.5504 8.892V12H29.0504V5.592H30.4784V6.528ZM36.4437 5.52C37.3877 5.52 38.1077 5.748 38.6037 6.204C39.1077 6.652 39.3597 7.332 39.3597 8.244V12H37.9437V11.22C37.7597 11.5 37.4957 11.716 37.1517 11.868C36.8157 12.012 36.4077 12.084 35.9277 12.084C35.4477 12.084 35.0277 12.004 34.6677 11.844C34.3077 11.676 34.0277 11.448 33.8277 11.16C33.6357 10.864 33.5397 10.532 33.5397 10.164C33.5397 9.588 33.7517 9.128 34.1757 8.784C34.6077 8.432 35.2837 8.256 36.2037 8.256H37.8597V8.16C37.8597 7.712 37.7237 7.368 37.4517 7.128C37.1877 6.888 36.7917 6.768 36.2637 6.768C35.9037 6.768 35.5477 6.824 35.1957 6.936C34.8517 7.048 34.5597 7.204 34.3197 7.404L33.7317 6.312C34.0677 6.056 34.4717 5.86 34.9437 5.724C35.4157 5.588 35.9157 5.52 36.4437 5.52ZM36.2397 10.992C36.6157 10.992 36.9477 10.908 37.2357 10.74C37.5317 10.564 37.7397 10.316 37.8597 9.996V9.252H36.3117C35.4477 9.252 35.0157 9.536 35.0157 10.104C35.0157 10.376 35.1237 10.592 35.3397 10.752C35.5557 10.912 35.8557 10.992 36.2397 10.992ZM44.2834 12.084C43.6194 12.084 43.0234 11.944 42.4954 11.664C41.9674 11.384 41.5554 10.996 41.2594 10.5C40.9634 9.996 40.8154 9.428 40.8154 8.796C40.8154 8.164 40.9634 7.6 41.2594 7.104C41.5554 6.608 41.9634 6.22 42.4834 5.94C43.0114 5.66 43.6114 5.52 44.2834 5.52C44.9154 5.52 45.4674 5.648 45.9394 5.904C46.4194 6.16 46.7794 6.528 47.0194 7.008L45.8674 7.68C45.6834 7.384 45.4514 7.164 45.1714 7.02C44.8994 6.868 44.5994 6.792 44.2714 6.792C43.7114 6.792 43.2474 6.976 42.8794 7.344C42.5114 7.704 42.3274 8.188 42.3274 8.796C42.3274 9.404 42.5074 9.892 42.8674 10.26C43.2354 10.62 43.7034 10.8 44.2714 10.8C44.5994 10.8 44.8994 10.728 45.1714 10.584C45.4514 10.432 45.6834 10.208 45.8674 9.912L47.0194 10.584C46.7714 11.064 46.4074 11.436 45.9274 11.7C45.4554 11.956 44.9074 12.084 44.2834 12.084ZM50.8734 9.252L49.7574 10.308V12H48.2574V3.096H49.7574V8.472L52.8654 5.592H54.6654L51.9894 8.28L54.9174 12H53.0934L50.8734 9.252ZM57.6671 12.084C57.1471 12.084 56.6391 12.016 56.1431 11.88C55.6471 11.744 55.2511 11.572 54.9551 11.364L55.5311 10.224C55.8191 10.416 56.1631 10.572 56.5631 10.692C56.9711 10.804 57.3711 10.86 57.7631 10.86C58.6591 10.86 59.1071 10.624 59.1071 10.152C59.1071 9.928 58.9911 9.772 58.7591 9.684C58.5351 9.596 58.1711 9.512 57.6671 9.432C57.1391 9.352 56.7071 9.26 56.3711 9.156C56.0431 9.052 55.7551 8.872 55.5071 8.616C55.2671 8.352 55.1471 7.988 55.1471 7.524C55.1471 6.916 55.3991 6.432 55.9031 6.072C56.4151 5.704 57.1031 5.52 57.9671 5.52C58.4071 5.52 58.8471 5.572 59.2871 5.676C59.7271 5.772 60.0871 5.904 60.3671 6.072L59.7911 7.212C59.2471 6.892 58.6351 6.732 57.9551 6.732C57.5151 6.732 57.1791 6.8 56.9471 6.936C56.7231 7.064 56.6111 7.236 56.6111 7.452C56.6111 7.692 56.7311 7.864 56.9711 7.968C57.2191 8.064 57.5991 8.156 58.1111 8.244C58.6231 8.324 59.0431 8.416 59.3711 8.52C59.6991 8.624 59.9791 8.8 60.2111 9.048C60.4511 9.296 60.5711 9.648 60.5711 10.104C60.5711 10.704 60.3111 11.184 59.7911 11.544C59.2711 11.904 58.5631 12.084 57.6671 12.084Z" fill="white"/>
<path d="M15.55 7.7H18.3V8.74H15.55V7.7Z" fill="white"/>
<path d="M12.5784 3.50371C11.3039 2.22918 9.29859 2.13684 7.91227 3.28996C7.91062 3.29137 7.7318 3.43809 7.5 3.43809C7.26234 3.43809 7.09266 3.29418 7.08609 3.28855C5.70141 2.13684 3.69609 2.22918 2.42156 3.50371C1.76695 4.15832 1.40625 5.02879 1.40625 5.9548C1.40625 6.88082 1.76695 7.75129 2.40914 8.3923L6.43078 13.1006C6.69844 13.414 7.0882 13.5938 7.5 13.5938C7.91203 13.5938 8.30156 13.414 8.56922 13.1009L12.5782 8.40613C13.9301 7.05449 13.9301 4.85535 12.5784 3.50371Z" fill="#1DB954"/>
<path d="M324.832 26.92H322.048V25.6H329.176V26.92H326.392V34H324.832V26.92ZM331.478 28.528C331.91 27.856 332.67 27.52 333.758 27.52V28.948C333.63 28.924 333.514 28.912 333.41 28.912C332.826 28.912 332.37 29.084 332.042 29.428C331.714 29.764 331.55 30.252 331.55 30.892V34H330.05V27.592H331.478V28.528ZM337.444 27.52C338.388 27.52 339.108 27.748 339.604 28.204C340.108 28.652 340.36 29.332 340.36 30.244V34H338.944V33.22C338.76 33.5 338.496 33.716 338.152 33.868C337.816 34.012 337.408 34.084 336.928 34.084C336.448 34.084 336.028 34.004 335.668 33.844C335.308 33.676 335.028 33.448 334.828 33.16C334.636 32.864 334.54 32.532 334.54 32.164C334.54 31.588 334.752 31.128 335.176 30.784C335.608 30.432 336.284 30.256 337.204 30.256H338.86V30.16C338.86 29.712 338.724 29.368 338.452 29.128C338.188 28.888 337.792 28.768 337.264 28.768C336.904 28.768 336.548 28.824 336.196 28.936C335.852 29.048 335.56 29.204 335.32 29.404L334.732 28.312C335.068 28.056 335.472 27.86 335.944 27.724C336.416 27.588 336.916 27.52 337.444 27.52ZM337.24 32.992C337.616 32.992 337.948 32.908 338.236 32.74C338.532 32.564 338.74 32.316 338.86 31.996V31.252H337.312C336.448 31.252 336.016 31.536 336.016 32.104C336.016 32.376 336.124 32.592 336.34 32.752C336.556 32.912 336.856 32.992 337.24 32.992ZM345.283 34.084C344.619 34.084 344.023 33.944 343.495 33.664C342.967 33.384 342.555 32.996 342.259 32.5C341.963 31.996 341.815 31.428 341.815 30.796C341.815 30.164 341.963 29.6 342.259 29.104C342.555 28.608 342.963 28.22 343.483 27.94C344.011 27.66 344.611 27.52 345.283 27.52C345.915 27.52 346.467 27.648 346.939 27.904C347.419 28.16 347.779 28.528 348.019 29.008L346.867 29.68C346.683 29.384 346.451 29.164 346.171 29.02C345.899 28.868 345.599 28.792 345.271 28.792C344.711 28.792 344.247 28.976 343.879 29.344C343.511 29.704 343.327 30.188 343.327 30.796C343.327 31.404 343.507 31.892 343.867 32.26C344.235 32.62 344.703 32.8 345.271 32.8C345.599 32.8 345.899 32.728 346.171 32.584C346.451 32.432 346.683 32.208 346.867 31.912L348.019 32.584C347.771 33.064 347.407 33.436 346.927 33.7C346.455 33.956 345.907 34.084 345.283 34.084ZM351.873 31.252L350.757 32.308V34H349.257V25.096H350.757V30.472L353.865 27.592H355.665L352.989 30.28L355.917 34H354.093L351.873 31.252ZM358.667 34.084C358.147 34.084 357.639 34.016 357.143 33.88C356.647 33.744 356.251 33.572 355.955 33.364L356.531 32.224C356.819 32.416 357.163 32.572 357.563 32.692C357.971 32.804 358.371 32.86 358.763 32.86C359.659 32.86 360.107 32.624 360.107 32.152C360.107 31.928 359.991 31.772 359.759 31.684C359.535 31.596 359.171 31.512 358.667 31.432C358.139 31.352 357.707 31.26 357.371 31.156C357.043 31.052 356.755 30.872 356.507 30.616C356.267 30.352 356.147 29.988 356.147 29.524C356.147 28.916 356.399 28.432 356.903 28.072C357.415 27.704 358.103 27.52 358.967 27.52C359.407 27.52 359.847 27.572 360.287 27.676C360.727 27.772 361.087 27.904 361.367 28.072L360.791 29.212C360.247 28.892 359.635 28.732 358.955 28.732C358.515 28.732 358.179 28.8 357.947 28.936C357.723 29.064 357.611 29.236 357.611 29.452C357.611 29.692 357.731 29.864 357.971 29.968C358.219 30.064 358.599 30.156 359.111 30.244C359.623 30.324 360.043 30.416 360.371 30.52C360.699 30.624 360.979 30.8 361.211 31.048C361.451 31.296 361.571 31.648 361.571 32.104C361.571 32.704 361.311 33.184 360.791 33.544C360.271 33.904 359.563 34.084 358.667 34.084Z" fill="white"/>
<path d="M316.55 29.7H319.3V30.74H316.55V29.7Z" fill="white"/>
<path d="M313.578 25.5037C312.304 24.2292 310.299 24.1368 308.912 25.29C308.911 25.2914 308.732 25.4381 308.5 25.4381C308.262 25.4381 308.093 25.2942 308.086 25.2885C306.701 24.1368 304.696 24.2292 303.422 25.5037C302.767 26.1583 302.406 27.0288 302.406 27.9548C302.406 28.8808 302.767 29.7513 303.409 30.3923L307.431 35.1006C307.698 35.414 308.088 35.5938 308.5 35.5938C308.912 35.5938 309.302 35.414 309.569 35.1009L313.578 30.4061C314.93 29.0545 314.93 26.8553 313.578 25.5037Z" fill="#1DB954"/>
<path d="M82.584 175.6C83.312 175.6 83.944 175.72 84.48 175.96C85.024 176.2 85.44 176.544 85.728 176.992C86.016 177.44 86.16 177.972 86.16 178.588C86.16 179.196 86.016 179.728 85.728 180.184C85.44 180.632 85.024 180.976 84.48 181.216C83.944 181.456 83.312 181.576 82.584 181.576H80.688V184H79.128V175.6H82.584ZM82.512 180.256C83.192 180.256 83.708 180.112 84.06 179.824C84.412 179.536 84.588 179.124 84.588 178.588C84.588 178.052 84.412 177.64 84.06 177.352C83.708 177.064 83.192 176.92 82.512 176.92H80.688V180.256H82.512ZM87.5153 177.592H89.0153V184H87.5153V177.592ZM88.2713 176.536C87.9993 176.536 87.7713 176.452 87.5873 176.284C87.4033 176.108 87.3113 175.892 87.3113 175.636C87.3113 175.38 87.4033 175.168 87.5873 175C87.7713 174.824 87.9993 174.736 88.2713 174.736C88.5433 174.736 88.7713 174.82 88.9553 174.988C89.1393 175.148 89.2313 175.352 89.2313 175.6C89.2313 175.864 89.1393 176.088 88.9553 176.272C88.7793 176.448 88.5513 176.536 88.2713 176.536ZM97.008 180.832C97.008 180.936 97 181.084 96.984 181.276H91.956C92.044 181.748 92.272 182.124 92.64 182.404C93.016 182.676 93.48 182.812 94.032 182.812C94.736 182.812 95.316 182.58 95.772 182.116L96.576 183.04C96.288 183.384 95.924 183.644 95.484 183.82C95.044 183.996 94.548 184.084 93.996 184.084C93.292 184.084 92.672 183.944 92.136 183.664C91.6 183.384 91.184 182.996 90.888 182.5C90.6 181.996 90.456 181.428 90.456 180.796C90.456 180.172 90.596 179.612 90.876 179.116C91.164 178.612 91.56 178.22 92.064 177.94C92.568 177.66 93.136 177.52 93.768 177.52C94.392 177.52 94.948 177.66 95.436 177.94C95.932 178.212 96.316 178.6 96.588 179.104C96.868 179.6 97.008 180.176 97.008 180.832ZM93.768 178.72C93.288 178.72 92.88 178.864 92.544 179.152C92.216 179.432 92.016 179.808 91.944 180.28H95.58C95.516 179.816 95.32 179.44 94.992 179.152C94.664 178.864 94.256 178.72 93.768 178.72ZM101.909 175.6H103.469V184H101.909V175.6ZM109.233 177.52C110.041 177.52 110.689 177.756 111.177 178.228C111.665 178.7 111.909 179.4 111.909 180.328V184H110.409V180.52C110.409 179.96 110.277 179.54 110.013 179.26C109.749 178.972 109.373 178.828 108.885 178.828C108.333 178.828 107.897 178.996 107.577 179.332C107.257 179.66 107.097 180.136 107.097 180.76V184H105.597V177.592H107.025V178.42C107.273 178.124 107.585 177.9 107.961 177.748C108.337 177.596 108.761 177.52 109.233 177.52ZM117.664 183.652C117.488 183.796 117.272 183.904 117.016 183.976C116.768 184.048 116.504 184.084 116.224 184.084C115.52 184.084 114.976 183.9 114.592 183.532C114.208 183.164 114.016 182.628 114.016 181.924V178.84H112.96V177.64H114.016V176.176H115.516V177.64H117.232V178.84H115.516V181.888C115.516 182.2 115.592 182.44 115.744 182.608C115.896 182.768 116.116 182.848 116.404 182.848C116.74 182.848 117.02 182.76 117.244 182.584L117.664 183.652ZM124.711 180.832C124.711 180.936 124.703 181.084 124.687 181.276H119.659C119.747 181.748 119.975 182.124 120.343 182.404C120.719 182.676 121.183 182.812 121.735 182.812C122.439 182.812 123.019 182.58 123.475 182.116L124.279 183.04C123.991 183.384 123.627 183.644 123.187 183.82C122.747 183.996 122.251 184.084 121.699 184.084C120.995 184.084 120.375 183.944 119.839 183.664C119.303 183.384 118.887 182.996 118.591 182.5C118.303 181.996 118.159 181.428 118.159 180.796C118.159 180.172 118.299 179.612 118.579 179.116C118.867 178.612 119.263 178.22 119.767 177.94C120.271 177.66 120.839 177.52 121.471 177.52C122.095 177.52 122.651 177.66 123.139 177.94C123.635 178.212 124.019 178.6 124.291 179.104C124.571 179.6 124.711 180.176 124.711 180.832ZM121.471 178.72C120.991 178.72 120.583 178.864 120.247 179.152C119.919 179.432 119.719 179.808 119.647 180.28H123.283C123.219 179.816 123.023 179.44 122.695 179.152C122.367 178.864 121.959 178.72 121.471 178.72ZM127.58 178.528C128.012 177.856 128.772 177.52 129.86 177.52V178.948C129.732 178.924 129.616 178.912 129.512 178.912C128.928 178.912 128.472 179.084 128.144 179.428C127.816 179.764 127.652 180.252 127.652 180.892V184H126.152V177.592H127.58V178.528ZM133.136 184.084C132.616 184.084 132.108 184.016 131.612 183.88C131.116 183.744 130.72 183.572 130.424 183.364L131 182.224C131.288 182.416 131.632 182.572 132.032 182.692C132.44 182.804 132.84 182.86 133.232 182.86C134.128 182.86 134.576 182.624 134.576 182.152C134.576 181.928 134.46 181.772 134.228 181.684C134.004 181.596 133.64 181.512 133.136 181.432C132.608 181.352 132.176 181.26 131.84 181.156C131.512 181.052 131.224 180.872 130.976 180.616C130.736 180.352 130.616 179.988 130.616 179.524C130.616 178.916 130.868 178.432 131.372 178.072C131.884 177.704 132.572 177.52 133.436 177.52C133.876 177.52 134.316 177.572 134.756 177.676C135.196 177.772 135.556 177.904 135.836 178.072L135.26 179.212C134.716 178.892 134.104 178.732 133.424 178.732C132.984 178.732 132.648 178.8 132.416 178.936C132.192 179.064 132.08 179.236 132.08 179.452C132.08 179.692 132.2 179.864 132.44 179.968C132.688 180.064 133.068 180.156 133.58 180.244C134.092 180.324 134.512 180.416 134.84 180.52C135.168 180.624 135.448 180.8 135.68 181.048C135.92 181.296 136.04 181.648 136.04 182.104C136.04 182.704 135.78 183.184 135.26 183.544C134.74 183.904 134.032 184.084 133.136 184.084ZM143.356 180.832C143.356 180.936 143.348 181.084 143.332 181.276H138.304C138.392 181.748 138.62 182.124 138.988 182.404C139.364 182.676 139.828 182.812 140.38 182.812C141.084 182.812 141.664 182.58 142.12 182.116L142.924 183.04C142.636 183.384 142.272 183.644 141.832 183.82C141.392 183.996 140.896 184.084 140.344 184.084C139.64 184.084 139.02 183.944 138.484 183.664C137.948 183.384 137.532 182.996 137.236 182.5C136.948 181.996 136.804 181.428 136.804 180.796C136.804 180.172 136.944 179.612 137.224 179.116C137.512 178.612 137.908 178.22 138.412 177.94C138.916 177.66 139.484 177.52 140.116 177.52C140.74 177.52 141.296 177.66 141.784 177.94C142.28 178.212 142.664 178.6 142.936 179.104C143.216 179.6 143.356 180.176 143.356 180.832ZM140.116 178.72C139.636 178.72 139.228 178.864 138.892 179.152C138.564 179.432 138.364 179.808 138.292 180.28H141.928C141.864 179.816 141.668 179.44 141.34 179.152C141.012 178.864 140.604 178.72 140.116 178.72ZM147.737 184.084C147.073 184.084 146.477 183.944 145.949 183.664C145.421 183.384 145.009 182.996 144.713 182.5C144.417 181.996 144.269 181.428 144.269 180.796C144.269 180.164 144.417 179.6 144.713 179.104C145.009 178.608 145.417 178.22 145.937 177.94C146.465 177.66 147.065 177.52 147.737 177.52C148.369 177.52 148.921 177.648 149.393 177.904C149.873 178.16 150.233 178.528 150.473 179.008L149.321 179.68C149.137 179.384 148.905 179.164 148.625 179.02C148.353 178.868 148.053 178.792 147.725 178.792C147.165 178.792 146.701 178.976 146.333 179.344C145.965 179.704 145.781 180.188 145.781 180.796C145.781 181.404 145.961 181.892 146.321 182.26C146.689 182.62 147.157 182.8 147.725 182.8C148.053 182.8 148.353 182.728 148.625 182.584C148.905 182.432 149.137 182.208 149.321 181.912L150.473 182.584C150.225 183.064 149.861 183.436 149.381 183.7C148.909 183.956 148.361 184.084 147.737 184.084ZM155.703 183.652C155.527 183.796 155.311 183.904 155.055 183.976C154.807 184.048 154.543 184.084 154.263 184.084C153.559 184.084 153.015 183.9 152.631 183.532C152.247 183.164 152.055 182.628 152.055 181.924V178.84H150.999V177.64H152.055V176.176H153.555V177.64H155.271V178.84H153.555V181.888C153.555 182.2 153.631 182.44 153.783 182.608C153.935 182.768 154.155 182.848 154.443 182.848C154.779 182.848 155.059 182.76 155.283 182.584L155.703 183.652ZM156.937 177.592H158.437V184H156.937V177.592ZM157.693 176.536C157.421 176.536 157.193 176.452 157.009 176.284C156.825 176.108 156.733 175.892 156.733 175.636C156.733 175.38 156.825 175.168 157.009 175C157.193 174.824 157.421 174.736 157.693 174.736C157.965 174.736 158.193 174.82 158.377 174.988C158.561 175.148 158.653 175.352 158.653 175.6C158.653 175.864 158.561 176.088 158.377 176.272C158.201 176.448 157.973 176.536 157.693 176.536ZM163.286 184.084C162.638 184.084 162.054 183.944 161.534 183.664C161.014 183.384 160.606 182.996 160.31 182.5C160.022 181.996 159.878 181.428 159.878 180.796C159.878 180.164 160.022 179.6 160.31 179.104C160.606 178.608 161.014 178.22 161.534 177.94C162.054 177.66 162.638 177.52 163.286 177.52C163.942 177.52 164.53 177.66 165.05 177.94C165.57 178.22 165.974 178.608 166.262 179.104C166.558 179.6 166.706 180.164 166.706 180.796C166.706 181.428 166.558 181.996 166.262 182.5C165.974 182.996 165.57 183.384 165.05 183.664C164.53 183.944 163.942 184.084 163.286 184.084ZM163.286 182.8C163.838 182.8 164.294 182.616 164.654 182.248C165.014 181.88 165.194 181.396 165.194 180.796C165.194 180.196 165.014 179.712 164.654 179.344C164.294 178.976 163.838 178.792 163.286 178.792C162.734 178.792 162.278 178.976 161.918 179.344C161.566 179.712 161.39 180.196 161.39 180.796C161.39 181.396 161.566 181.88 161.918 182.248C162.278 182.616 162.734 182.8 163.286 182.8ZM171.776 177.52C172.584 177.52 173.232 177.756 173.72 178.228C174.208 178.7 174.452 179.4 174.452 180.328V184H172.952V180.52C172.952 179.96 172.82 179.54 172.556 179.26C172.292 178.972 171.916 178.828 171.428 178.828C170.876 178.828 170.44 178.996 170.12 179.332C169.8 179.66 169.64 180.136 169.64 180.76V184H168.14V177.592H169.568V178.42C169.816 178.124 170.128 177.9 170.504 177.748C170.88 177.596 171.304 177.52 171.776 177.52ZM179.468 177.748H185V178.948H179.468V177.748ZM179.468 180.652H185V181.852H179.468V180.652ZM194.098 184.12C193.25 184.12 192.482 183.936 191.794 183.568C191.114 183.192 190.578 182.676 190.186 182.02C189.802 181.364 189.61 180.624 189.61 179.8C189.61 178.976 189.806 178.236 190.198 177.58C190.59 176.924 191.126 176.412 191.806 176.044C192.494 175.668 193.262 175.48 194.11 175.48C194.798 175.48 195.426 175.6 195.994 175.84C196.562 176.08 197.042 176.428 197.434 176.884L196.426 177.832C195.818 177.176 195.07 176.848 194.182 176.848C193.606 176.848 193.09 176.976 192.634 177.232C192.178 177.48 191.822 177.828 191.566 178.276C191.31 178.724 191.182 179.232 191.182 179.8C191.182 180.368 191.31 180.876 191.566 181.324C191.822 181.772 192.178 182.124 192.634 182.38C193.09 182.628 193.606 182.752 194.182 182.752C195.07 182.752 195.818 182.42 196.426 181.756L197.434 182.716C197.042 183.172 196.558 183.52 195.982 183.76C195.414 184 194.786 184.12 194.098 184.12ZM201.43 184.084C200.782 184.084 200.198 183.944 199.678 183.664C199.158 183.384 198.75 182.996 198.454 182.5C198.166 181.996 198.022 181.428 198.022 180.796C198.022 180.164 198.166 179.6 198.454 179.104C198.75 178.608 199.158 178.22 199.678 177.94C200.198 177.66 200.782 177.52 201.43 177.52C202.086 177.52 202.674 177.66 203.194 177.94C203.714 178.22 204.118 178.608 204.406 179.104C204.702 179.6 204.85 180.164 204.85 180.796C204.85 181.428 204.702 181.996 204.406 182.5C204.118 182.996 203.714 183.384 203.194 183.664C202.674 183.944 202.086 184.084 201.43 184.084ZM201.43 182.8C201.982 182.8 202.438 182.616 202.798 182.248C203.158 181.88 203.338 181.396 203.338 180.796C203.338 180.196 203.158 179.712 202.798 179.344C202.438 178.976 201.982 178.792 201.43 178.792C200.878 178.792 200.422 178.976 200.062 179.344C199.71 179.712 199.534 180.196 199.534 180.796C199.534 181.396 199.71 181.88 200.062 182.248C200.422 182.616 200.878 182.8 201.43 182.8ZM214.373 177.52C215.181 177.52 215.821 177.756 216.293 178.228C216.765 178.692 217.001 179.392 217.001 180.328V184H215.501V180.52C215.501 179.96 215.377 179.54 215.129 179.26C214.881 178.972 214.525 178.828 214.061 178.828C213.557 178.828 213.153 178.996 212.849 179.332C212.545 179.66 212.393 180.132 212.393 180.748V184H210.893V180.52C210.893 179.96 210.769 179.54 210.521 179.26C210.273 178.972 209.917 178.828 209.453 178.828C208.941 178.828 208.533 178.992 208.229 179.32C207.933 179.648 207.785 180.124 207.785 180.748V184H206.285V177.592H207.713V178.408C207.953 178.12 208.253 177.9 208.613 177.748C208.973 177.596 209.373 177.52 209.813 177.52C210.293 177.52 210.717 177.612 211.085 177.796C211.461 177.972 211.757 178.236 211.973 178.588C212.237 178.252 212.577 177.992 212.993 177.808C213.409 177.616 213.869 177.52 214.373 177.52ZM227.006 177.52C227.814 177.52 228.454 177.756 228.926 178.228C229.398 178.692 229.634 179.392 229.634 180.328V184H228.134V180.52C228.134 179.96 228.01 179.54 227.762 179.26C227.514 178.972 227.158 178.828 226.694 178.828C226.19 178.828 225.786 178.996 225.482 179.332C225.178 179.66 225.026 180.132 225.026 180.748V184H223.526V180.52C223.526 179.96 223.402 179.54 223.154 179.26C222.906 178.972 222.55 178.828 222.086 178.828C221.574 178.828 221.166 178.992 220.862 179.32C220.566 179.648 220.418 180.124 220.418 180.748V184H218.918V177.592H220.346V178.408C220.586 178.12 220.886 177.9 221.246 177.748C221.606 177.596 222.006 177.52 222.446 177.52C222.926 177.52 223.35 177.612 223.718 177.796C224.094 177.972 224.39 178.236 224.606 178.588C224.87 178.252 225.21 177.992 225.626 177.808C226.042 177.616 226.502 177.52 227.006 177.52ZM234.489 184.084C233.841 184.084 233.257 183.944 232.737 183.664C232.217 183.384 231.809 182.996 231.513 182.5C231.225 181.996 231.081 181.428 231.081 180.796C231.081 180.164 231.225 179.6 231.513 179.104C231.809 178.608 232.217 178.22 232.737 177.94C233.257 177.66 233.841 177.52 234.489 177.52C235.145 177.52 235.733 177.66 236.253 177.94C236.773 178.22 237.177 178.608 237.465 179.104C237.761 179.6 237.909 180.164 237.909 180.796C237.909 181.428 237.761 181.996 237.465 182.5C237.177 182.996 236.773 183.384 236.253 183.664C235.733 183.944 235.145 184.084 234.489 184.084ZM234.489 182.8C235.041 182.8 235.497 182.616 235.857 182.248C236.217 181.88 236.397 181.396 236.397 180.796C236.397 180.196 236.217 179.712 235.857 179.344C235.497 178.976 235.041 178.792 234.489 178.792C233.937 178.792 233.481 178.976 233.121 179.344C232.769 179.712 232.593 180.196 232.593 180.796C232.593 181.396 232.769 181.88 233.121 182.248C233.481 182.616 233.937 182.8 234.489 182.8ZM242.979 177.52C243.787 177.52 244.435 177.756 244.923 178.228C245.411 178.7 245.655 179.4 245.655 180.328V184H244.155V180.52C244.155 179.96 244.023 179.54 243.759 179.26C243.495 178.972 243.119 178.828 242.631 178.828C242.079 178.828 241.643 178.996 241.323 179.332C241.003 179.66 240.843 180.136 240.843 180.76V184H239.343V177.592H240.771V178.42C241.019 178.124 241.331 177.9 241.707 177.748C242.083 177.596 242.507 177.52 242.979 177.52ZM254.475 175.6C255.203 175.6 255.835 175.72 256.371 175.96C256.915 176.2 257.331 176.544 257.619 176.992C257.907 177.44 258.051 177.972 258.051 178.588C258.051 179.196 257.907 179.728 257.619 180.184C257.331 180.632 256.915 180.976 256.371 181.216C255.835 181.456 255.203 181.576 254.475 181.576H252.579V184H251.019V175.6H254.475ZM254.403 180.256C255.083 180.256 255.599 180.112 255.951 179.824C256.303 179.536 256.479 179.124 256.479 178.588C256.479 178.052 256.303 177.64 255.951 177.352C255.599 177.064 255.083 176.92 254.403 176.92H252.579V180.256H254.403ZM259.582 175.096H261.082V184H259.582V175.096ZM265.498 177.52C266.442 177.52 267.162 177.748 267.658 178.204C268.162 178.652 268.414 179.332 268.414 180.244V184H266.998V183.22C266.814 183.5 266.55 183.716 266.206 183.868C265.87 184.012 265.462 184.084 264.982 184.084C264.502 184.084 264.082 184.004 263.722 183.844C263.362 183.676 263.082 183.448 262.882 183.16C262.69 182.864 262.594 182.532 262.594 182.164C262.594 181.588 262.806 181.128 263.23 180.784C263.662 180.432 264.338 180.256 265.258 180.256H266.914V180.16C266.914 179.712 266.778 179.368 266.506 179.128C266.242 178.888 265.846 178.768 265.318 178.768C264.958 178.768 264.602 178.824 264.25 178.936C263.906 179.048 263.614 179.204 263.374 179.404L262.786 178.312C263.122 178.056 263.526 177.86 263.998 177.724C264.47 177.588 264.97 177.52 265.498 177.52ZM265.294 182.992C265.67 182.992 266.002 182.908 266.29 182.74C266.586 182.564 266.794 182.316 266.914 181.996V181.252H265.366C264.502 181.252 264.07 181.536 264.07 182.104C264.07 182.376 264.178 182.592 264.394 182.752C264.61 182.912 264.91 182.992 265.294 182.992ZM276.222 177.592L273.222 184.516C272.942 185.212 272.602 185.7 272.202 185.98C271.802 186.268 271.318 186.412 270.75 186.412C270.43 186.412 270.114 186.36 269.802 186.256C269.49 186.152 269.234 186.008 269.034 185.824L269.634 184.72C269.778 184.856 269.946 184.964 270.138 185.044C270.338 185.124 270.538 185.164 270.738 185.164C271.002 185.164 271.218 185.096 271.386 184.96C271.562 184.824 271.722 184.596 271.866 184.276L271.974 184.024L269.178 177.592H270.738L272.754 182.332L274.782 177.592H276.222ZM277.16 175.096H278.66V184H277.16V175.096ZM280.629 177.592H282.129V184H280.629V177.592ZM281.385 176.536C281.113 176.536 280.885 176.452 280.701 176.284C280.517 176.108 280.425 175.892 280.425 175.636C280.425 175.38 280.517 175.168 280.701 175C280.885 174.824 281.113 174.736 281.385 174.736C281.657 174.736 281.885 174.82 282.069 174.988C282.253 175.148 282.345 175.352 282.345 175.6C282.345 175.864 282.253 176.088 282.069 176.272C281.893 176.448 281.665 176.536 281.385 176.536ZM286.077 184.084C285.557 184.084 285.049 184.016 284.553 183.88C284.057 183.744 283.661 183.572 283.365 183.364L283.941 182.224C284.229 182.416 284.573 182.572 284.973 182.692C285.381 182.804 285.781 182.86 286.173 182.86C287.069 182.86 287.517 182.624 287.517 182.152C287.517 181.928 287.401 181.772 287.169 181.684C286.945 181.596 286.581 181.512 286.077 181.432C285.549 181.352 285.117 181.26 284.781 181.156C284.453 181.052 284.165 180.872 283.917 180.616C283.677 180.352 283.557 179.988 283.557 179.524C283.557 178.916 283.809 178.432 284.313 178.072C284.825 177.704 285.513 177.52 286.377 177.52C286.817 177.52 287.257 177.572 287.697 177.676C288.137 177.772 288.497 177.904 288.777 178.072L288.201 179.212C287.657 178.892 287.045 178.732 286.365 178.732C285.925 178.732 285.589 178.8 285.357 178.936C285.133 179.064 285.021 179.236 285.021 179.452C285.021 179.692 285.141 179.864 285.381 179.968C285.629 180.064 286.009 180.156 286.521 180.244C287.033 180.324 287.453 180.416 287.781 180.52C288.109 180.624 288.389 180.8 288.621 181.048C288.861 181.296 288.981 181.648 288.981 182.104C288.981 182.704 288.721 183.184 288.201 183.544C287.681 183.904 286.973 184.084 286.077 184.084ZM294.125 183.652C293.949 183.796 293.733 183.904 293.477 183.976C293.229 184.048 292.965 184.084 292.685 184.084C291.981 184.084 291.437 183.9 291.053 183.532C290.669 183.164 290.477 182.628 290.477 181.924V178.84H289.421V177.64H290.477V176.176H291.977V177.64H293.693V178.84H291.977V181.888C291.977 182.2 292.053 182.44 292.205 182.608C292.357 182.768 292.577 182.848 292.865 182.848C293.201 182.848 293.481 182.76 293.705 182.584L294.125 183.652Z" fill="white"/>
<g filter="url(#filter3_d)">
<path d="M182 133.087V167" stroke="white" stroke-width="2" stroke-linecap="round" stroke-dasharray="6 6"/>
<path d="M177 134.217C177.261 133.855 180.608 128.058 181.006 128.002C181.799 127.888 187.896 134.015 188.453 134.535" stroke="white" stroke-width="2" stroke-linecap="round" stroke-dasharray="6 6"/>
</g>
<defs>
<filter id="filter0_d" x="80" y="23" width="205" height="122.685" filterUnits="userSpaceOnUse" color-interpolation-filters="sRGB">
<feFlood flood-opacity="0" result="BackgroundImageFix"/>
<feColorMatrix in="SourceAlpha" type="matrix" values="0 0 0 0 0 0 0 0 0 0 0 0 0 0 0 0 0 0 127 0" result="hardAlpha"/>
<feOffset dy="4"/>
<feGaussianBlur stdDeviation="2"/>
<feComposite in2="hardAlpha" operator="out"/>
<feColorMatrix type="matrix" values="0 0 0 0 0 0 0 0 0 0 0 0 0 0 0 0 0 0 0.25 0"/>
<feBlend mode="normal" in2="BackgroundImageFix" result="effect1_dropShadow"/>
<feBlend mode="normal" in="SourceGraphic" in2="effect1_dropShadow" result="shape"/>
</filter>
<filter id="filter1_d" x="26.3082" y="20.5406" width="55.4603" height="57.0948" filterUnits="userSpaceOnUse" color-interpolation-filters="sRGB">
<feFlood flood-opacity="0" result="BackgroundImageFix"/>
<feColorMatrix in="SourceAlpha" type="matrix" values="0 0 0 0 0 0 0 0 0 0 0 0 0 0 0 0 0 0 127 0" result="hardAlpha"/>
<feOffset dy="4"/>
<feGaussianBlur stdDeviation="2"/>
<feComposite in2="hardAlpha" operator="out"/>
<feColorMatrix type="matrix" values="0 0 0 0 0 0 0 0 0 0 0 0 0 0 0 0 0 0 0.25 0"/>
<feBlend mode="normal" in2="BackgroundImageFix" result="effect1_dropShadow"/>
<feBlend mode="normal" in="SourceGraphic" in2="effect1_dropShadow" result="shape"/>
</filter>
<filter id="filter2_d" x="284.122" y="40" width="54.8649" height="57.0988" filterUnits="userSpaceOnUse" color-interpolation-filters="sRGB">
<feFlood flood-opacity="0" result="BackgroundImageFix"/>
<feColorMatrix in="SourceAlpha" type="matrix" values="0 0 0 0 0 0 0 0 0 0 0 0 0 0 0 0 0 0 127 0" result="hardAlpha"/>
<feOffset dy="4"/>
<feGaussianBlur stdDeviation="2"/>
<feComposite in2="hardAlpha" operator="out"/>
<feColorMatrix type="matrix" values="0 0 0 0 0 0 0 0 0 0 0 0 0 0 0 0 0 0 0.25 0"/>
<feBlend mode="normal" in2="BackgroundImageFix" result="effect1_dropShadow"/>
<feBlend mode="normal" in="SourceGraphic" in2="effect1_dropShadow" result="shape"/>
</filter>
<filter id="filter3_d" x="172" y="127" width="21.4535" height="49" filterUnits="userSpaceOnUse" color-interpolation-filters="sRGB">
<feFlood flood-opacity="0" result="BackgroundImageFix"/>
<feColorMatrix in="SourceAlpha" type="matrix" values="0 0 0 0 0 0 0 0 0 0 0 0 0 0 0 0 0 0 127 0" result="hardAlpha"/>
<feOffset dy="4"/>
<feGaussianBlur stdDeviation="2"/>
<feComposite in2="hardAlpha" operator="out"/>
<feColorMatrix type="matrix" values="0 0 0 0 0 0 0 0 0 0 0 0 0 0 0 0 0 0 0.25 0"/>
<feBlend mode="normal" in2="BackgroundImageFix" result="effect1_dropShadow"/>
<feBlend mode="normal" in="SourceGraphic" in2="effect1_dropShadow" result="shape"/>
</filter>
</defs>
</svg>
