<svg width="381" height="175" viewBox="0 0 381 175" fill="none" xmlns="http://www.w3.org/2000/svg">
<circle cx="148.343" cy="117.343" r="57.3427" fill="#AD47DD"/>
<circle cx="230.657" cy="117.343" r="57.3427" fill="#AD47DD"/>
<path d="M173.315 117.501C173.315 133.023 179.482 147.105 189.5 157.429C199.518 147.105 205.686 133.023 205.686 117.501C205.686 101.979 199.518 87.8972 189.5 77.5728C179.482 87.8972 173.315 101.979 173.315 117.501Z" fill="#1DB954"/>
<path d="M12.4258 129.13C11.7238 129.13 11.0435 129.03 10.3848 128.831C9.73481 128.632 9.21915 128.367 8.83781 128.038L9.42281 126.725C9.79548 127.02 10.2505 127.262 10.7878 127.453C11.3338 127.635 11.8798 127.726 12.4258 127.726C13.1018 127.726 13.6045 127.618 13.9338 127.401C14.2718 127.184 14.4408 126.898 14.4408 126.543C14.4408 126.283 14.3455 126.071 14.1548 125.906C13.9728 125.733 13.7388 125.598 13.4528 125.503C13.1668 125.408 12.7768 125.299 12.2828 125.178C11.5895 125.013 11.0261 124.849 10.5928 124.684C10.1681 124.519 9.79981 124.264 9.48781 123.917C9.18448 123.562 9.03281 123.085 9.03281 122.487C9.03281 121.984 9.16715 121.529 9.43581 121.122C9.71315 120.706 10.1248 120.377 10.6708 120.134C11.2255 119.891 11.9015 119.77 12.6988 119.77C13.2535 119.77 13.7995 119.839 14.3368 119.978C14.8741 120.117 15.3378 120.316 15.7278 120.576L15.1948 121.889C14.7961 121.655 14.3801 121.477 13.9468 121.356C13.5135 121.235 13.0931 121.174 12.6858 121.174C12.0185 121.174 11.5201 121.287 11.1908 121.512C10.8701 121.737 10.7098 122.036 10.7098 122.409C10.7098 122.669 10.8008 122.881 10.9828 123.046C11.1735 123.211 11.4118 123.341 11.6978 123.436C11.9838 123.531 12.3738 123.64 12.8678 123.761C13.5438 123.917 14.0985 124.082 14.5318 124.255C14.9651 124.42 15.3335 124.675 15.6368 125.022C15.9488 125.369 16.1048 125.837 16.1048 126.426C16.1048 126.929 15.9661 127.384 15.6888 127.791C15.4201 128.198 15.0085 128.523 14.4538 128.766C13.8991 129.009 13.2231 129.13 12.4258 129.13ZM20.7446 129.091C20.0426 129.091 19.4099 128.939 18.8466 128.636C18.2833 128.333 17.8413 127.912 17.5206 127.375C17.2086 126.829 17.0526 126.214 17.0526 125.529C17.0526 124.844 17.2086 124.233 17.5206 123.696C17.8413 123.159 18.2833 122.738 18.8466 122.435C19.4099 122.132 20.0426 121.98 20.7446 121.98C21.4553 121.98 22.0923 122.132 22.6556 122.435C23.2189 122.738 23.6566 123.159 23.9686 123.696C24.2893 124.233 24.4496 124.844 24.4496 125.529C24.4496 126.214 24.2893 126.829 23.9686 127.375C23.6566 127.912 23.2189 128.333 22.6556 128.636C22.0923 128.939 21.4553 129.091 20.7446 129.091ZM20.7446 127.7C21.3426 127.7 21.8366 127.501 22.2266 127.102C22.6166 126.703 22.8116 126.179 22.8116 125.529C22.8116 124.879 22.6166 124.355 22.2266 123.956C21.8366 123.557 21.3426 123.358 20.7446 123.358C20.1466 123.358 19.6526 123.557 19.2626 123.956C18.8813 124.355 18.6906 124.879 18.6906 125.529C18.6906 126.179 18.8813 126.703 19.2626 127.102C19.6526 127.501 20.1466 127.7 20.7446 127.7ZM29.9425 121.98C30.8178 121.98 31.5198 122.236 32.0485 122.747C32.5772 123.258 32.8415 124.017 32.8415 125.022V129H31.2165V125.23C31.2165 124.623 31.0735 124.168 30.7875 123.865C30.5015 123.553 30.0942 123.397 29.5655 123.397C28.9675 123.397 28.4952 123.579 28.1485 123.943C27.8018 124.298 27.6285 124.814 27.6285 125.49V129H26.0035V122.058H27.5505V122.955C27.8192 122.634 28.1572 122.392 28.5645 122.227C28.9718 122.062 29.4312 121.98 29.9425 121.98ZM41.8564 122.058V127.947C41.8564 130.391 40.6084 131.613 38.1124 131.613C37.4451 131.613 36.8124 131.526 36.2144 131.353C35.6164 131.188 35.1224 130.946 34.7324 130.625L35.4604 129.403C35.7637 129.654 36.1451 129.854 36.6044 130.001C37.0724 130.157 37.5447 130.235 38.0214 130.235C38.7841 130.235 39.3431 130.062 39.6984 129.715C40.0537 129.368 40.2314 128.84 40.2314 128.129V127.765C39.9541 128.068 39.6161 128.298 39.2174 128.454C38.8187 128.61 38.3811 128.688 37.9044 128.688C37.2457 128.688 36.6477 128.549 36.1104 128.272C35.5817 127.986 35.1614 127.587 34.8494 127.076C34.5461 126.565 34.3944 125.98 34.3944 125.321C34.3944 124.662 34.5461 124.082 34.8494 123.579C35.1614 123.068 35.5817 122.673 36.1104 122.396C36.6477 122.119 37.2457 121.98 37.9044 121.98C38.4071 121.98 38.8621 122.062 39.2694 122.227C39.6854 122.392 40.0321 122.643 40.3094 122.981V122.058H41.8564ZM38.1514 127.31C38.7667 127.31 39.2694 127.128 39.6594 126.764C40.0581 126.391 40.2574 125.91 40.2574 125.321C40.2574 124.74 40.0581 124.268 39.6594 123.904C39.2694 123.54 38.7667 123.358 38.1514 123.358C37.5274 123.358 37.0161 123.54 36.6174 123.904C36.2274 124.268 36.0324 124.74 36.0324 125.321C36.0324 125.91 36.2274 126.391 36.6174 126.764C37.0161 127.128 37.5274 127.31 38.1514 127.31ZM46.1378 129.091C45.5744 129.091 45.0241 129.017 44.4868 128.87C43.9494 128.723 43.5204 128.536 43.1998 128.311L43.8238 127.076C44.1358 127.284 44.5084 127.453 44.9418 127.583C45.3838 127.704 45.8171 127.765 46.2418 127.765C47.2124 127.765 47.6978 127.509 47.6978 126.998C47.6978 126.755 47.5721 126.586 47.3208 126.491C47.0781 126.396 46.6838 126.305 46.1378 126.218C45.5658 126.131 45.0978 126.032 44.7338 125.919C44.3784 125.806 44.0664 125.611 43.7978 125.334C43.5378 125.048 43.4078 124.654 43.4078 124.151C43.4078 123.492 43.6808 122.968 44.2268 122.578C44.7814 122.179 45.5268 121.98 46.4628 121.98C46.9394 121.98 47.4161 122.036 47.8928 122.149C48.3694 122.253 48.7594 122.396 49.0628 122.578L48.4388 123.813C47.8494 123.466 47.1864 123.293 46.4498 123.293C45.9731 123.293 45.6091 123.367 45.3578 123.514C45.1151 123.653 44.9938 123.839 44.9938 124.073C44.9938 124.333 45.1238 124.519 45.3838 124.632C45.6524 124.736 46.0641 124.836 46.6188 124.931C47.1734 125.018 47.6284 125.117 47.9838 125.23C48.3391 125.343 48.6424 125.533 48.8938 125.802C49.1538 126.071 49.2838 126.452 49.2838 126.946C49.2838 127.596 49.0021 128.116 48.4388 128.506C47.8754 128.896 47.1084 129.091 46.1378 129.091ZM10.7056 138.058L7.45565 145.559C7.15232 146.313 6.78398 146.842 6.35065 147.145C5.91732 147.457 5.39298 147.613 4.77765 147.613C4.43098 147.613 4.08865 147.557 3.75065 147.444C3.41265 147.331 3.13532 147.175 2.91865 146.976L3.56865 145.78C3.72465 145.927 3.90665 146.044 4.11465 146.131C4.33132 146.218 4.54798 146.261 4.76465 146.261C5.05065 146.261 5.28465 146.187 5.46665 146.04C5.65732 145.893 5.83065 145.646 5.98665 145.299L6.10365 145.026L3.07465 138.058H4.76465L6.94865 143.193L9.14565 138.058H10.7056ZM14.6508 145.091C13.9488 145.091 13.3162 144.939 12.7528 144.636C12.1895 144.333 11.7475 143.912 11.4268 143.375C11.1148 142.829 10.9588 142.214 10.9588 141.529C10.9588 140.844 11.1148 140.233 11.4268 139.696C11.7475 139.159 12.1895 138.738 12.7528 138.435C13.3162 138.132 13.9488 137.98 14.6508 137.98C15.3615 137.98 15.9985 138.132 16.5618 138.435C17.1252 138.738 17.5628 139.159 17.8748 139.696C18.1955 140.233 18.3558 140.844 18.3558 141.529C18.3558 142.214 18.1955 142.829 17.8748 143.375C17.5628 143.912 17.1252 144.333 16.5618 144.636C15.9985 144.939 15.3615 145.091 14.6508 145.091ZM14.6508 143.7C15.2488 143.7 15.7428 143.501 16.1328 143.102C16.5228 142.703 16.7178 142.179 16.7178 141.529C16.7178 140.879 16.5228 140.355 16.1328 139.956C15.7428 139.557 15.2488 139.358 14.6508 139.358C14.0528 139.358 13.5588 139.557 13.1688 139.956C12.7875 140.355 12.5968 140.879 12.5968 141.529C12.5968 142.179 12.7875 142.703 13.1688 143.102C13.5588 143.501 14.0528 143.7 14.6508 143.7ZM26.6308 138.058V145H25.0838V144.116C24.8238 144.428 24.4988 144.671 24.1088 144.844C23.7188 145.009 23.2984 145.091 22.8478 145.091C21.9204 145.091 21.1881 144.835 20.6508 144.324C20.1221 143.804 19.8578 143.037 19.8578 142.023V138.058H21.4828V141.802C21.4828 142.426 21.6214 142.894 21.8988 143.206C22.1848 143.509 22.5878 143.661 23.1078 143.661C23.6884 143.661 24.1478 143.483 24.4858 143.128C24.8324 142.764 25.0058 142.244 25.0058 141.568V138.058H26.6308ZM32.3512 135.354H33.9762V145H32.3512V135.354ZM36.109 138.058H37.734V145H36.109V138.058ZM36.928 136.914C36.6333 136.914 36.3863 136.823 36.187 136.641C35.9876 136.45 35.888 136.216 35.888 135.939C35.888 135.662 35.9876 135.432 36.187 135.25C36.3863 135.059 36.6333 134.964 36.928 134.964C37.2226 134.964 37.4696 135.055 37.669 135.237C37.8683 135.41 37.968 135.631 37.968 135.9C37.968 136.186 37.8683 136.429 37.669 136.628C37.4783 136.819 37.2313 136.914 36.928 136.914ZM42.7008 142.023L41.4918 143.167V145H39.8668V135.354H41.4918V141.178L44.8588 138.058H46.8088L43.9098 140.97L47.0818 145H45.1058L42.7008 142.023ZM54.3654 141.568C54.3654 141.681 54.3568 141.841 54.3394 142.049H48.8924C48.9878 142.56 49.2348 142.968 49.6334 143.271C50.0408 143.566 50.5434 143.713 51.1414 143.713C51.9041 143.713 52.5324 143.462 53.0264 142.959L53.8974 143.96C53.5854 144.333 53.1911 144.614 52.7144 144.805C52.2378 144.996 51.7004 145.091 51.1024 145.091C50.3398 145.091 49.6681 144.939 49.0874 144.636C48.5068 144.333 48.0561 143.912 47.7354 143.375C47.4234 142.829 47.2674 142.214 47.2674 141.529C47.2674 140.853 47.4191 140.246 47.7224 139.709C48.0344 139.163 48.4634 138.738 49.0094 138.435C49.5554 138.132 50.1708 137.98 50.8554 137.98C51.5314 137.98 52.1338 138.132 52.6624 138.435C53.1998 138.73 53.6158 139.15 53.9104 139.696C54.2138 140.233 54.3654 140.857 54.3654 141.568ZM50.8554 139.28C50.3354 139.28 49.8934 139.436 49.5294 139.748C49.1741 140.051 48.9574 140.459 48.8794 140.97H52.8184C52.7491 140.467 52.5368 140.06 52.1814 139.748C51.8261 139.436 51.3841 139.28 50.8554 139.28Z" fill="white"/>
<path d="M303.043 129.13C302.341 129.13 301.661 129.03 301.002 128.831C300.352 128.632 299.836 128.367 299.455 128.038L300.04 126.725C300.413 127.02 300.868 127.262 301.405 127.453C301.951 127.635 302.497 127.726 303.043 127.726C303.719 127.726 304.222 127.618 304.551 127.401C304.889 127.184 305.058 126.898 305.058 126.543C305.058 126.283 304.963 126.071 304.772 125.906C304.59 125.733 304.356 125.598 304.07 125.503C303.784 125.408 303.394 125.299 302.9 125.178C302.207 125.013 301.643 124.849 301.21 124.684C300.785 124.519 300.417 124.264 300.105 123.917C299.802 123.562 299.65 123.085 299.65 122.487C299.65 121.984 299.784 121.529 300.053 121.122C300.33 120.706 300.742 120.377 301.288 120.134C301.843 119.891 302.519 119.77 303.316 119.77C303.871 119.77 304.417 119.839 304.954 119.978C305.491 120.117 305.955 120.316 306.345 120.576L305.812 121.889C305.413 121.655 304.997 121.477 304.564 121.356C304.131 121.235 303.71 121.174 303.303 121.174C302.636 121.174 302.137 121.287 301.808 121.512C301.487 121.737 301.327 122.036 301.327 122.409C301.327 122.669 301.418 122.881 301.6 123.046C301.791 123.211 302.029 123.341 302.315 123.436C302.601 123.531 302.991 123.64 303.485 123.761C304.161 123.917 304.716 124.082 305.149 124.255C305.582 124.42 305.951 124.675 306.254 125.022C306.566 125.369 306.722 125.837 306.722 126.426C306.722 126.929 306.583 127.384 306.306 127.791C306.037 128.198 305.626 128.523 305.071 128.766C304.516 129.009 303.84 129.13 303.043 129.13ZM311.362 129.091C310.66 129.091 310.027 128.939 309.464 128.636C308.9 128.333 308.458 127.912 308.138 127.375C307.826 126.829 307.67 126.214 307.67 125.529C307.67 124.844 307.826 124.233 308.138 123.696C308.458 123.159 308.9 122.738 309.464 122.435C310.027 122.132 310.66 121.98 311.362 121.98C312.072 121.98 312.709 122.132 313.273 122.435C313.836 122.738 314.274 123.159 314.586 123.696C314.906 124.233 315.067 124.844 315.067 125.529C315.067 126.214 314.906 126.829 314.586 127.375C314.274 127.912 313.836 128.333 313.273 128.636C312.709 128.939 312.072 129.091 311.362 129.091ZM311.362 127.7C311.96 127.7 312.454 127.501 312.844 127.102C313.234 126.703 313.429 126.179 313.429 125.529C313.429 124.879 313.234 124.355 312.844 123.956C312.454 123.557 311.96 123.358 311.362 123.358C310.764 123.358 310.27 123.557 309.88 123.956C309.498 124.355 309.308 124.879 309.308 125.529C309.308 126.179 309.498 126.703 309.88 127.102C310.27 127.501 310.764 127.7 311.362 127.7ZM320.56 121.98C321.435 121.98 322.137 122.236 322.666 122.747C323.194 123.258 323.459 124.017 323.459 125.022V129H321.834V125.23C321.834 124.623 321.691 124.168 321.405 123.865C321.119 123.553 320.711 123.397 320.183 123.397C319.585 123.397 319.112 123.579 318.766 123.943C318.419 124.298 318.246 124.814 318.246 125.49V129H316.621V122.058H318.168V122.955C318.436 122.634 318.774 122.392 319.182 122.227C319.589 122.062 320.048 121.98 320.56 121.98ZM332.474 122.058V127.947C332.474 130.391 331.226 131.613 328.73 131.613C328.062 131.613 327.43 131.526 326.832 131.353C326.234 131.188 325.74 130.946 325.35 130.625L326.078 129.403C326.381 129.654 326.762 129.854 327.222 130.001C327.69 130.157 328.162 130.235 328.639 130.235C329.401 130.235 329.96 130.062 330.316 129.715C330.671 129.368 330.849 128.84 330.849 128.129V127.765C330.571 128.068 330.233 128.298 329.835 128.454C329.436 128.61 328.998 128.688 328.522 128.688C327.863 128.688 327.265 128.549 326.728 128.272C326.199 127.986 325.779 127.587 325.467 127.076C325.163 126.565 325.012 125.98 325.012 125.321C325.012 124.662 325.163 124.082 325.467 123.579C325.779 123.068 326.199 122.673 326.728 122.396C327.265 122.119 327.863 121.98 328.522 121.98C329.024 121.98 329.479 122.062 329.887 122.227C330.303 122.392 330.649 122.643 330.927 122.981V122.058H332.474ZM328.769 127.31C329.384 127.31 329.887 127.128 330.277 126.764C330.675 126.391 330.875 125.91 330.875 125.321C330.875 124.74 330.675 124.268 330.277 123.904C329.887 123.54 329.384 123.358 328.769 123.358C328.145 123.358 327.633 123.54 327.235 123.904C326.845 124.268 326.65 124.74 326.65 125.321C326.65 125.91 326.845 126.391 327.235 126.764C327.633 127.128 328.145 127.31 328.769 127.31ZM336.755 129.091C336.192 129.091 335.641 129.017 335.104 128.87C334.567 128.723 334.138 128.536 333.817 128.311L334.441 127.076C334.753 127.284 335.126 127.453 335.559 127.583C336.001 127.704 336.434 127.765 336.859 127.765C337.83 127.765 338.315 127.509 338.315 126.998C338.315 126.755 338.189 126.586 337.938 126.491C337.695 126.396 337.301 126.305 336.755 126.218C336.183 126.131 335.715 126.032 335.351 125.919C334.996 125.806 334.684 125.611 334.415 125.334C334.155 125.048 334.025 124.654 334.025 124.151C334.025 123.492 334.298 122.968 334.844 122.578C335.399 122.179 336.144 121.98 337.08 121.98C337.557 121.98 338.033 122.036 338.51 122.149C338.987 122.253 339.377 122.396 339.68 122.578L339.056 123.813C338.467 123.466 337.804 123.293 337.067 123.293C336.59 123.293 336.226 123.367 335.975 123.514C335.732 123.653 335.611 123.839 335.611 124.073C335.611 124.333 335.741 124.519 336.001 124.632C336.27 124.736 336.681 124.836 337.236 124.931C337.791 125.018 338.246 125.117 338.601 125.23C338.956 125.343 339.26 125.533 339.511 125.802C339.771 126.071 339.901 126.452 339.901 126.946C339.901 127.596 339.619 128.116 339.056 128.506C338.493 128.896 337.726 129.091 336.755 129.091ZM351.393 122.058L348.143 129.559C347.84 130.313 347.471 130.842 347.038 131.145C346.605 131.457 346.08 131.613 345.465 131.613C345.118 131.613 344.776 131.557 344.438 131.444C344.1 131.331 343.823 131.175 343.606 130.976L344.256 129.78C344.412 129.927 344.594 130.044 344.802 130.131C345.019 130.218 345.235 130.261 345.452 130.261C345.738 130.261 345.972 130.187 346.154 130.04C346.345 129.893 346.518 129.646 346.674 129.299L346.791 129.026L343.762 122.058H345.452L347.636 127.193L349.833 122.058H351.393ZM355.338 129.091C354.636 129.091 354.004 128.939 353.44 128.636C352.877 128.333 352.435 127.912 352.114 127.375C351.802 126.829 351.646 126.214 351.646 125.529C351.646 124.844 351.802 124.233 352.114 123.696C352.435 123.159 352.877 122.738 353.44 122.435C354.004 122.132 354.636 121.98 355.338 121.98C356.049 121.98 356.686 122.132 357.249 122.435C357.813 122.738 358.25 123.159 358.562 123.696C358.883 124.233 359.043 124.844 359.043 125.529C359.043 126.214 358.883 126.829 358.562 127.375C358.25 127.912 357.813 128.333 357.249 128.636C356.686 128.939 356.049 129.091 355.338 129.091ZM355.338 127.7C355.936 127.7 356.43 127.501 356.82 127.102C357.21 126.703 357.405 126.179 357.405 125.529C357.405 124.879 357.21 124.355 356.82 123.956C356.43 123.557 355.936 123.358 355.338 123.358C354.74 123.358 354.246 123.557 353.856 123.956C353.475 124.355 353.284 124.879 353.284 125.529C353.284 126.179 353.475 126.703 353.856 127.102C354.246 127.501 354.74 127.7 355.338 127.7ZM367.318 122.058V129H365.771V128.116C365.511 128.428 365.186 128.671 364.796 128.844C364.406 129.009 363.986 129.091 363.535 129.091C362.608 129.091 361.876 128.835 361.338 128.324C360.81 127.804 360.545 127.037 360.545 126.023V122.058H362.17V125.802C362.17 126.426 362.309 126.894 362.586 127.206C362.872 127.509 363.275 127.661 363.795 127.661C364.376 127.661 364.835 127.483 365.173 127.128C365.52 126.764 365.693 126.244 365.693 125.568V122.058H367.318ZM370.993 123.072C371.461 122.344 372.284 121.98 373.463 121.98V123.527C373.324 123.501 373.199 123.488 373.086 123.488C372.453 123.488 371.959 123.674 371.604 124.047C371.249 124.411 371.071 124.94 371.071 125.633V129H369.446V122.058H370.993V123.072ZM302.887 136.576C302.202 136.576 301.86 136.949 301.86 137.694V138.11H303.771V139.41H301.912V145H300.287V139.41H299.143V138.11H300.287V137.668C300.287 136.923 300.504 136.338 300.937 135.913C301.37 135.48 301.981 135.263 302.77 135.263C303.394 135.263 303.884 135.389 304.239 135.64L303.784 136.862C303.507 136.671 303.208 136.576 302.887 136.576ZM307.453 139.072C307.921 138.344 308.744 137.98 309.923 137.98V139.527C309.784 139.501 309.659 139.488 309.546 139.488C308.913 139.488 308.419 139.674 308.064 140.047C307.709 140.411 307.531 140.94 307.531 141.633V145H305.906V138.058H307.453V139.072ZM311.301 138.058H312.926V145H311.301V138.058ZM312.12 136.914C311.826 136.914 311.579 136.823 311.379 136.641C311.18 136.45 311.08 136.216 311.08 135.939C311.08 135.662 311.18 135.432 311.379 135.25C311.579 135.059 311.826 134.964 312.12 134.964C312.415 134.964 312.662 135.055 312.861 135.237C313.061 135.41 313.16 135.631 313.16 135.9C313.16 136.186 313.061 136.429 312.861 136.628C312.671 136.819 312.424 136.914 312.12 136.914ZM321.585 141.568C321.585 141.681 321.576 141.841 321.559 142.049H316.112C316.207 142.56 316.454 142.968 316.853 143.271C317.26 143.566 317.763 143.713 318.361 143.713C319.124 143.713 319.752 143.462 320.246 142.959L321.117 143.96C320.805 144.333 320.411 144.614 319.934 144.805C319.457 144.996 318.92 145.091 318.322 145.091C317.559 145.091 316.888 144.939 316.307 144.636C315.726 144.333 315.276 143.912 314.955 143.375C314.643 142.829 314.487 142.214 314.487 141.529C314.487 140.853 314.639 140.246 314.942 139.709C315.254 139.163 315.683 138.738 316.229 138.435C316.775 138.132 317.39 137.98 318.075 137.98C318.751 137.98 319.353 138.132 319.882 138.435C320.419 138.73 320.835 139.15 321.13 139.696C321.433 140.233 321.585 140.857 321.585 141.568ZM318.075 139.28C317.555 139.28 317.113 139.436 316.749 139.748C316.394 140.051 316.177 140.459 316.099 140.97H320.038C319.969 140.467 319.756 140.06 319.401 139.748C319.046 139.436 318.604 139.28 318.075 139.28ZM327.085 137.98C327.96 137.98 328.662 138.236 329.191 138.747C329.72 139.258 329.984 140.017 329.984 141.022V145H328.359V141.23C328.359 140.623 328.216 140.168 327.93 139.865C327.644 139.553 327.237 139.397 326.708 139.397C326.11 139.397 325.638 139.579 325.291 139.943C324.944 140.298 324.771 140.814 324.771 141.49V145H323.146V138.058H324.693V138.955C324.962 138.634 325.3 138.392 325.707 138.227C326.114 138.062 326.574 137.98 327.085 137.98ZM338.908 135.354V145H337.348V144.103C337.079 144.432 336.746 144.679 336.347 144.844C335.957 145.009 335.524 145.091 335.047 145.091C334.38 145.091 333.777 144.944 333.24 144.649C332.711 144.354 332.295 143.938 331.992 143.401C331.689 142.855 331.537 142.231 331.537 141.529C331.537 140.827 331.689 140.207 331.992 139.67C332.295 139.133 332.711 138.717 333.24 138.422C333.777 138.127 334.38 137.98 335.047 137.98C335.506 137.98 335.927 138.058 336.308 138.214C336.689 138.37 337.014 138.604 337.283 138.916V135.354H338.908ZM335.242 143.7C335.632 143.7 335.983 143.613 336.295 143.44C336.607 143.258 336.854 143.002 337.036 142.673C337.218 142.344 337.309 141.962 337.309 141.529C337.309 141.096 337.218 140.714 337.036 140.385C336.854 140.056 336.607 139.804 336.295 139.631C335.983 139.449 335.632 139.358 335.242 139.358C334.852 139.358 334.501 139.449 334.189 139.631C333.877 139.804 333.63 140.056 333.448 140.385C333.266 140.714 333.175 141.096 333.175 141.529C333.175 141.962 333.266 142.344 333.448 142.673C333.63 143.002 333.877 143.258 334.189 143.44C334.501 143.613 334.852 143.7 335.242 143.7ZM344.627 135.354H346.252V145H344.627V135.354ZM348.384 138.058H350.009V145H348.384V138.058ZM349.203 136.914C348.909 136.914 348.662 136.823 348.462 136.641C348.263 136.45 348.163 136.216 348.163 135.939C348.163 135.662 348.263 135.432 348.462 135.25C348.662 135.059 348.909 134.964 349.203 134.964C349.498 134.964 349.745 135.055 349.944 135.237C350.144 135.41 350.243 135.631 350.243 135.9C350.243 136.186 350.144 136.429 349.944 136.628C349.754 136.819 349.507 136.914 349.203 136.914ZM354.976 142.023L353.767 143.167V145H352.142V135.354H353.767V141.178L357.134 138.058H359.084L356.185 140.97L359.357 145H357.381L354.976 142.023ZM366.641 141.568C366.641 141.681 366.632 141.841 366.615 142.049H361.168C361.263 142.56 361.51 142.968 361.909 143.271C362.316 143.566 362.819 143.713 363.417 143.713C364.179 143.713 364.808 143.462 365.302 142.959L366.173 143.96C365.861 144.333 365.466 144.614 364.99 144.805C364.513 144.996 363.976 145.091 363.378 145.091C362.615 145.091 361.943 144.939 361.363 144.636C360.782 144.333 360.331 143.912 360.011 143.375C359.699 142.829 359.543 142.214 359.543 141.529C359.543 140.853 359.694 140.246 359.998 139.709C360.31 139.163 360.739 138.738 361.285 138.435C361.831 138.132 362.446 137.98 363.131 137.98C363.807 137.98 364.409 138.132 364.938 138.435C365.475 138.73 365.891 139.15 366.186 139.696C366.489 140.233 366.641 140.857 366.641 141.568ZM363.131 139.28C362.611 139.28 362.169 139.436 361.805 139.748C361.449 140.051 361.233 140.459 361.155 140.97H365.094C365.024 140.467 364.812 140.06 364.457 139.748C364.101 139.436 363.659 139.28 363.131 139.28ZM370.347 145.091C369.783 145.091 369.233 145.017 368.696 144.87C368.158 144.723 367.729 144.536 367.409 144.311L368.033 143.076C368.345 143.284 368.717 143.453 369.151 143.583C369.593 143.704 370.026 143.765 370.451 143.765C371.421 143.765 371.907 143.509 371.907 142.998C371.907 142.755 371.781 142.586 371.53 142.491C371.287 142.396 370.893 142.305 370.347 142.218C369.775 142.131 369.307 142.032 368.943 141.919C368.587 141.806 368.275 141.611 368.007 141.334C367.747 141.048 367.617 140.654 367.617 140.151C367.617 139.492 367.89 138.968 368.436 138.578C368.99 138.179 369.736 137.98 370.672 137.98C371.148 137.98 371.625 138.036 372.102 138.149C372.578 138.253 372.968 138.396 373.272 138.578L372.648 139.813C372.058 139.466 371.395 139.293 370.659 139.293C370.182 139.293 369.818 139.367 369.567 139.514C369.324 139.653 369.203 139.839 369.203 140.073C369.203 140.333 369.333 140.519 369.593 140.632C369.861 140.736 370.273 140.836 370.828 140.931C371.382 141.018 371.837 141.117 372.193 141.23C372.548 141.343 372.851 141.533 373.103 141.802C373.363 142.071 373.493 142.452 373.493 142.946C373.493 143.596 373.211 144.116 372.648 144.506C372.084 144.896 371.317 145.091 370.347 145.091Z" fill="white"/>
<path d="M29.0906 112.592C31.5131 108.115 33.6969 102.791 37.9668 99.7843C41.1305 97.5568 46.614 93.9359 50.4794 93.8367C55.2048 93.7155 59.7085 93.9003 64.4175 94.0417C69.5497 94.1959 73.5491 96.323 78.2973 97.1503" stroke="white" stroke-width="2" stroke-linecap="round" stroke-dasharray="6 6"/>
<path d="M82.0152 89.3489C83.9389 92.0288 85.9881 94.8056 88.8388 96.6493C89.0576 96.7908 90.501 97.5817 89.9138 97.9464C86.5011 100.066 83.2953 102.488 80.0441 104.872" stroke="white" stroke-width="2" stroke-linecap="round" stroke-dasharray="6 6"/>
<path d="M298.222 98.8595C303.183 97.7247 308.625 95.8508 313.701 97.0741C317.463 97.9804 323.802 99.7098 326.428 102.548C329.638 106.018 332.472 109.523 335.474 113.154" stroke="white" stroke-width="2" stroke-linecap="round" stroke-dasharray="6 6"/>
<path d="M300.896 107.042C298.162 105.196 295.277 103.303 291.963 102.563C291.709 102.506 290.081 102.265 290.505 101.719C292.97 98.5469 295.136 95.1635 297.358 91.7989" stroke="white" stroke-width="2" stroke-linecap="round" stroke-dasharray="6 6"/>
<path d="M190 55.9999L190 1.99994" stroke="#1DB954" stroke-width="3" stroke-linecap="round" stroke-dasharray="7 7"/>
<path d="M203 51C202.753 51.481 199.28 54.2487 196.909 57.6171C194.073 61.6459 190.952 65.9029 190.5 65.9932C189.556 66.1818 186.518 62.4186 183.5 58.0582C181.238 54.7901 177.497 51.6504 177 51" stroke="#1DB954" stroke-width="3" stroke-linecap="round" stroke-dasharray="6 6"/>
</svg>
