<svg width="110" height="33" viewBox="0 0 109 33" fill="none" xmlns="http://www.w3.org/2000/svg">
<path d="M16.3798 0.0544434C7.36162 0.0544434 0.050621 7.41914 0.050621 16.5038C0.050621 25.5888 7.36162 32.9529 16.3798 32.9529C25.3989 32.9529 32.7091 25.5888 32.7091 16.5038C32.7091 7.41973 25.3989 0.0552291 16.3796 0.0552291L16.3798 0.0544434V0.0544434ZM23.8682 23.7791C23.5757 24.2623 22.9478 24.4155 22.4682 24.1189C18.6342 21.7598 13.8078 21.2255 8.12384 22.5337C7.57611 22.6594 7.03013 22.3137 6.90534 21.7618C6.77996 21.2098 7.12178 20.6598 7.67087 20.5341C13.8911 19.1025 19.2266 19.7189 23.5309 22.3687C24.0105 22.6653 24.1626 23.2959 23.8682 23.7791V23.7791ZM25.8669 19.3001C25.4983 19.9036 24.7145 20.0941 24.1158 19.7228C19.7266 17.0051 13.0359 16.218 7.84422 17.8055C7.17092 18.0104 6.45978 17.6281 6.25543 16.951C6.05264 16.2728 6.43229 15.5578 7.10443 15.3515C13.0347 13.5389 20.4071 14.4169 25.4476 17.5372C26.0462 17.9084 26.2354 18.6981 25.8669 19.3003V19.3001ZM26.0385 14.6361C20.7756 11.4872 12.0927 11.1976 7.06796 12.7339C6.26109 12.9804 5.40781 12.5216 5.16329 11.7087C4.91877 10.8955 5.37388 10.0366 6.18134 9.78944C11.9494 8.02552 21.5381 8.36632 27.5972 11.9898C28.3245 12.4237 28.5624 13.368 28.1315 14.0981C27.7025 14.8292 26.7626 15.0702 26.0392 14.6361H26.0385ZM44.4768 15.2396C41.6572 14.5623 41.1561 14.0869 41.1561 13.0881C41.1561 12.1444 42.0375 11.5094 43.3498 11.5094C44.6211 11.5094 45.8807 11.9916 47.2028 12.9844C47.2418 13.0144 47.2925 13.0264 47.3412 13.0185C47.3919 13.0111 47.4348 12.9838 47.4641 12.9427L48.8407 10.9879C48.8973 10.9073 48.8817 10.7963 48.8056 10.7349C47.232 9.46337 45.4615 8.84521 43.3907 8.84521C40.3469 8.84521 38.2195 10.6856 38.2195 13.3187C38.2195 16.1423 40.0544 17.1422 43.225 17.9139C45.9217 18.5399 46.378 19.0644 46.378 20.0018C46.378 21.0409 45.4576 21.6871 43.9757 21.6871C42.33 21.6871 40.9865 21.1273 39.485 19.8191C39.448 19.7857 39.3973 19.7719 39.3505 19.7739C39.2998 19.7778 39.2549 19.8014 39.2237 19.8387L37.6794 21.6891C37.6151 21.7677 37.6229 21.8816 37.697 21.9484C39.4441 23.5198 41.5929 24.3487 43.9133 24.3487C47.193 24.3487 49.3126 22.5436 49.3126 19.7484C49.3184 17.3899 47.9165 16.0836 44.4827 15.2421L44.4768 15.2396V15.2396ZM56.734 12.4385C55.3125 12.4385 54.1464 13.0026 53.1832 14.1586V12.8575C53.1832 12.7547 53.1013 12.6711 52.9999 12.6711H50.4747C50.3733 12.6711 50.2914 12.7547 50.2914 12.8575V27.3148C50.2914 27.4169 50.3733 27.5014 50.4747 27.5014H52.9999C53.1013 27.5014 53.1832 27.4169 53.1832 27.3148V22.7518C54.1464 23.838 55.3125 24.3703 56.734 24.3703C59.3761 24.3703 62.0514 22.3216 62.0514 18.405C62.0553 14.4876 59.38 12.4383 56.7359 12.4383L56.734 12.4385ZM59.1148 18.405C59.1148 20.3986 57.8961 21.7912 56.149 21.7912C54.4233 21.7912 53.1208 20.3357 53.1208 18.405C53.1208 16.4741 54.4233 15.019 56.149 15.019C57.8669 15.0188 59.1148 16.4425 59.1148 18.4048V18.405ZM68.9053 12.4385C65.5027 12.4385 62.8372 15.0777 62.8372 18.4476C62.8372 21.7814 65.4852 24.3919 68.8644 24.3919C72.2786 24.3919 74.952 21.7618 74.952 18.405C74.952 15.0596 72.2962 12.4389 68.9053 12.4389V12.4385V12.4385ZM68.9053 21.8109C67.0958 21.8109 65.7308 20.3455 65.7308 18.404C65.7308 16.4537 67.049 15.0384 68.8644 15.0384C70.6856 15.0384 72.0583 16.5032 72.0583 18.4466C72.0583 20.3966 70.7324 21.8109 68.9053 21.8109V21.8109ZM82.2173 12.6711H79.4387V9.80987C79.4387 9.70734 79.3568 9.62366 79.2554 9.62366H76.7303C76.6289 9.62366 76.545 9.70734 76.545 9.80987V12.6711H75.3322C75.2308 12.6711 75.1489 12.7547 75.1489 12.8575V15.0431C75.1489 15.1457 75.2308 15.2295 75.3322 15.2295H76.545V20.8857C76.545 23.1702 77.674 24.3291 79.9028 24.3291C80.8076 24.3291 81.5583 24.1405 82.2661 23.7359C82.3246 23.7044 82.3597 23.6416 82.3597 23.5748V21.4927C82.3597 21.4298 82.3265 21.3689 82.2719 21.3355C82.2173 21.3002 82.1491 21.2982 82.0925 21.3277C81.607 21.5732 81.1371 21.6871 80.6106 21.6871C79.8014 21.6871 79.4387 21.3159 79.4387 20.4869V15.2305H82.2173C82.3187 15.2305 82.4006 15.1468 82.4006 15.0441V12.8586C82.4045 12.7559 82.3226 12.6722 82.2193 12.6722L82.2173 12.6711V12.6711ZM91.8967 12.6822V12.3308C91.8967 11.297 92.2906 10.836 93.1719 10.836C93.6984 10.836 94.1215 10.9413 94.5954 11.1004C94.6539 11.1189 94.7143 11.1096 94.7611 11.0745C94.8099 11.0393 94.8372 10.9829 94.8372 10.9232V8.78019C94.8372 8.69828 94.7865 8.6258 94.7065 8.60164C94.2073 8.45177 93.5678 8.29796 92.6084 8.29796C90.2783 8.29796 89.044 9.62071 89.044 12.1218V12.6601H87.8311C87.7297 12.6601 87.6459 12.7437 87.6459 12.8463V15.0431C87.6459 15.1457 87.7297 15.2295 87.8311 15.2295H89.044V23.9519C89.044 24.0561 89.1278 24.1386 89.2292 24.1386H91.7524C91.8558 24.1386 91.9376 24.0561 91.9376 23.9519V15.2301H94.2951L97.9063 23.9519C97.4968 24.8673 97.0932 25.05 96.5433 25.05C96.0988 25.05 95.6288 24.9164 95.1511 24.6512C95.1063 24.6277 95.0517 24.6237 95.0049 24.6375C94.9561 24.6552 94.9152 24.6905 94.8957 24.7377L94.0397 26.6293C93.9987 26.7196 94.0338 26.8237 94.1196 26.8709C95.0127 27.358 95.818 27.5662 96.8144 27.5662C98.6785 27.5662 99.71 26.6902 100.617 24.3369L104.996 12.9368C105.02 12.8795 105.012 12.8146 104.977 12.7638C104.944 12.7133 104.887 12.6828 104.827 12.6828H102.198C102.118 12.6828 102.048 12.7333 102.023 12.8078L99.3298 20.5537L96.3815 12.8027C96.3542 12.7306 96.2859 12.6828 96.2099 12.6828H91.8967V12.6822V12.6822ZM86.2849 12.6711H83.7597C83.6583 12.6711 83.5745 12.7547 83.5745 12.8575V23.9519C83.5745 24.0561 83.6583 24.1386 83.7597 24.1386H86.2849C86.3863 24.1386 86.4701 24.0561 86.4701 23.9519V12.8582C86.4701 12.7555 86.3882 12.6718 86.2849 12.6718V12.6711ZM85.0369 7.6191C84.0366 7.6191 83.2254 8.43468 83.2254 9.44216C83.2254 10.4502 84.0366 11.2668 85.0369 11.2668C86.0372 11.2668 86.8464 10.4502 86.8464 9.44216C86.8464 8.43487 86.0353 7.6191 85.0369 7.6191ZM107.153 16.2384C106.154 16.2384 105.376 15.4301 105.376 14.4485C105.376 13.467 106.164 12.6494 107.163 12.6494C108.161 12.6494 108.939 13.4576 108.939 14.4383C108.939 15.4199 108.151 16.2384 107.153 16.2384ZM107.163 12.8274C106.252 12.8274 105.564 13.5562 105.564 14.4485C105.564 15.3405 106.248 16.0594 107.153 16.0594C108.063 16.0594 108.752 15.3313 108.752 14.4383C108.752 13.5463 108.067 12.8274 107.163 12.8274V12.8274ZM107.556 14.6224L108.06 15.3311H107.634L107.182 14.6809H106.794V15.3311H106.439V13.4524H107.27C107.705 13.4524 107.989 13.6758 107.989 14.0517C107.991 14.3597 107.814 14.5479 107.558 14.6224H107.556ZM107.256 13.7748H106.794V14.369H107.256C107.486 14.369 107.625 14.2552 107.625 14.0716C107.625 13.8783 107.486 13.7748 107.256 13.7748V13.7748Z" fill="#1ED760"/>
</svg>
